<?xml version="1.0" standalone="no"?>
<!DOCTYPE svg PUBLIC "-//W3C//DTD SVG 20010904//EN"
 "http://www.w3.org/TR/2001/REC-SVG-20010904/DTD/svg10.dtd">
<svg version="1.0" xmlns="http://www.w3.org/2000/svg"
 width="512.000000pt" height="512.000000pt" viewBox="0 0 512.000000 512.000000"
 preserveAspectRatio="xMidYMid meet">

<g transform="translate(0.000000,512.000000) scale(0.100000,-0.100000)"
fill="#000000" stroke="none">
<path d="M1321 4784 c-169 -45 -301 -180 -346 -351 -13 -50 -15 -296 -15
-1878 0 -2033 -5 -1882 71 -1969 53 -60 107 -87 185 -94 115 -9 146 9 329 188
88 87 170 163 182 169 33 17 84 13 120 -8 17 -11 155 -119 306 -239 160 -128
291 -225 313 -233 58 -20 151 -16 204 8 25 12 173 123 329 248 291 233 313
247 377 231 17 -5 93 -71 194 -170 188 -186 218 -203 334 -194 78 7 132 34
185 94 76 87 71 -64 71 1969 0 1582 -2 1828 -15 1878 -45 173 -178 307 -350
352 -86 22 -2391 22 -2474 -1z m2445 -330 c15 -11 37 -33 48 -48 21 -27 21
-28 24 -1783 l2 -1757 -123 121 c-67 66 -140 129 -162 141 -80 40 -153 55
-246 50 -132 -8 -171 -31 -478 -277 -146 -116 -270 -210 -277 -207 -7 3 -128
98 -270 212 -299 241 -340 264 -473 272 -164 9 -242 -28 -413 -196 l-118 -116
0 1741 c0 1209 3 1750 11 1770 14 37 47 73 84 89 25 11 240 13 1197 11 1161
-2 1167 -2 1194 -23z"/>
<path d="M2015 3986 c-67 -29 -105 -106 -91 -181 9 -47 59 -102 104 -115 25
-8 209 -10 554 -8 504 3 517 4 544 24 53 39 69 71 69 134 0 63 -16 95 -69 134
-27 21 -40 21 -554 23 -423 2 -533 0 -557 -11z"/>
<path d="M1695 3346 c-67 -29 -105 -106 -91 -181 9 -47 59 -102 104 -115 25
-8 305 -10 874 -8 827 3 837 3 864 24 53 39 69 71 69 134 0 63 -16 95 -69 134
-27 21 -36 21 -874 23 -689 2 -853 0 -877 -11z"/>
<path d="M1695 2706 c-67 -29 -105 -106 -91 -181 9 -47 59 -102 104 -115 25
-8 305 -10 874 -8 827 3 837 3 864 24 53 39 69 71 69 134 0 63 -16 95 -69 134
-27 21 -36 21 -874 23 -689 2 -853 0 -877 -11z"/>
<path d="M1695 2066 c-67 -29 -105 -106 -91 -181 9 -47 59 -102 104 -115 25
-8 305 -10 874 -8 827 3 837 3 864 24 53 39 69 71 69 134 0 63 -16 95 -69 134
-27 21 -36 21 -874 23 -689 2 -853 0 -877 -11z"/>
</g>
</svg>
